# xmcd
#
# Track frame offsets: 
#        150
#        21802
#        49396
#        77129
#        105556
#        130123
#        151367
#        172941
#        193516
#        224477
#        251585
#
# Disc length: 3525 seconds
#
# Revision: 0
# Processed by: cddbd v1.5.1PL0 Copyright (c) Steve Scherf et al.
# Submitted via: ExactAudioCopy v0.95a2
#
DISCID=900dc30b
DTITLE=Rufus Thomas - Just Because I'm Leavin'
DYEAR=2005
DGENRE=Blues
TTITLE0=Old Dog New Tricks
TTITLE1=Did You Ever Love A Woman
TTITLE2=I'll Be A Good Boy
TTITLE3=Jaunita
TTITLE4=Can't Ever Let You Go
TTITLE5=Trouble In Mind
TTITLE6=Miss Jane
TTITLE7=Walkin' In The Rain
TTITLE8=If There Were No Music
TTITLE9=Today I Started Loving You Again
TTITLE10=God Bless America (Featuring Carla Thomas)
EXTD=
EXTT0=
EXTT1=
EXTT2=
EXTT3=
EXTT4=
EXTT5=
EXTT6=
EXTT7=
EXTT8=
EXTT9=
EXTT10=
PLAYORDER=
